<?xml version="1.0" encoding="utf-8"?>
<!-- Generator: Adobe Illustrator 21.0.0, SVG Export Plug-In . SVG Version: 6.00 Build 0)  -->
<svg version="1.1" xmlns="http://www.w3.org/2000/svg" xmlns:xlink="http://www.w3.org/1999/xlink" x="0px" y="0px"
	 viewBox="0 0 361.3 53.6" style="enable-background:new 0 0 361.3 53.6;" xml:space="preserve">
<style type="text/css">
	.st0{display:none;}
	.st1{fill:#00ACDA;}
	.st2{fill:url(#SVGID_1_);}
</style>
<g id="Layer_1" class="st0">
	
		<image style="display:inline;overflow:visible;" width="75" height="39" xlink:href="C:\Users\Nikesh\Desktop\icons\fw-logo.png"  transform="matrix(1 0 0 1 -567.8451 278.9014)">
	</image>
</g>
<g id="Layer_2">
	<path class="st1" d="M9.2,20.7l22.2,11.1c0.9,0.4,2.2,1.3,1.4,2.3l0,0c0,0,0,0,0,0L32,34.8c-0.5,0.4-1.1,0.6-1.8,0.5L17.4,33
		c-2.1-0.4-4.1-1.2-5.9-2.4c-2.2-1.5-4.7-3.5-4.9-5.1C6.3,23.4,7,19.7,9.2,20.7z"/>
	<polygon class="st1" points="16,17.4 28.1,12.6 38.6,30.6 35.1,31.8 	"/>
	<polygon class="st1" points="36.1,9.1 51.6,9.1 45.9,30.3 41.4,30.3 	"/>
	<path class="st1" d="M30.1,37.2l-9.5-0.9c0,0,1.5,3.7,4.1,4.1c2.6,0.4,5.5,0.4,5.5,0.4V37.2z"/>
	<path class="st1" d="M78.9,20.7L56.7,31.8c-0.9,0.4-2.2,1.3-1.4,2.3l0,0c0,0,0,0,0,0l0.8,0.7c0.5,0.4,1.1,0.6,1.8,0.5L70.7,33
		c2.1-0.4,4.1-1.2,5.9-2.4c2.2-1.5,4.7-3.5,4.9-5.1C81.7,23.4,81,19.7,78.9,20.7z"/>
	<polygon class="st1" points="72,17.4 59.9,12.6 49.4,30.6 52.9,31.8 	"/>
	<path class="st1" d="M58,37.2l9.5-0.9c0,0-1.5,3.7-4.1,4.1c-2.6,0.4-5.5,0.4-5.5,0.4V37.2z"/>
	<linearGradient id="SVGID_1_" gradientUnits="userSpaceOnUse" x1="43.9617" y1="48.0691" x2="43.9617" y2="31.6471">
		<stop  offset="0" style="stop-color:#00ACDA"/>
		<stop  offset="1" style="stop-color:#32446C"/>
	</linearGradient>
	<path class="st2" d="M30.7,38.9c0-4.2,6.5-8.6,13.9-7.8c5.7,0.6,12.6,2.2,12.6,9.3c0,4.1-6.9,7.5-12.6,7.5S30.7,45.9,30.7,38.9z"/>
	<g>
		<g>
			<path class="st1" d="M91.4,32.7V37c0,0.7-0.2,1.3-0.5,1.8s-0.7,0.8-1.2,0.8c-0.4,0-0.8-0.3-1.2-0.9c-0.3-0.4-0.4-0.8-0.4-1V24.2
				c0-0.4,0.3-0.7,0.8-1.1c0.5-0.3,1.1-0.5,1.6-0.5h7.8c0.6,0,0.9,0.3,0.9,0.8c0,0.4-0.1,0.8-0.3,1.2s-0.4,0.7-0.6,0.9
				S97.7,26,97.5,26h-6.1v3.5h5.3c0.6,0,0.8,0.3,0.8,0.8c0,0.6-0.2,1.1-0.5,1.6s-0.7,0.7-1,0.7H91.4z"/>
			<path class="st1" d="M108.8,36.1h-6.9l-0.7,2c-0.1,0.4-0.4,0.8-0.6,1c-0.3,0.3-0.6,0.4-0.8,0.4c-0.4,0-0.8-0.3-1.2-0.9
				c-0.3-0.4-0.4-0.8-0.4-1c0-0.1,0-0.2,0.1-0.4l4.9-13.3c0.1-0.2,0.2-0.4,0.5-0.6c0.2-0.2,0.5-0.3,0.9-0.5c0.3-0.1,0.7-0.2,1-0.2
				h1.5c0.5,0,0.8,0.2,0.9,0.5l4.8,13.3c0.1,0.1,0.1,0.3,0.1,0.5c0,0.7-0.2,1.3-0.5,1.8s-0.7,0.8-1.2,0.8s-0.8-0.3-1.2-0.9
				c-0.2-0.2-0.3-0.5-0.4-0.7L108.8,36.1z M105.4,26.3l-2.4,6.9h4.8L105.4,26.3z"/>
			<path class="st1" d="M114.8,24.1c0-0.4,0.3-0.7,0.8-1.1c0.5-0.3,1.1-0.5,1.6-0.5c0.6,0,0.9,0.3,0.9,0.9V37c0,0.7-0.2,1.3-0.5,1.8
				s-0.7,0.8-1.2,0.8c-0.4,0-0.8-0.3-1.2-0.9c-0.3-0.4-0.4-0.8-0.4-1V24.1z"/>
			<path class="st1" d="M126.8,33.5h-2.1V37c0,0.7-0.2,1.3-0.5,1.8s-0.7,0.8-1.2,0.8c-0.4,0-0.8-0.3-1.2-0.9c-0.3-0.4-0.4-0.8-0.4-1
				V24.2c0-0.4,0.3-0.7,0.8-1.1c0.5-0.3,1.1-0.5,1.6-0.5h3.6c1.1,0,2.1,0.2,2.9,0.7s1.5,1.1,2,1.9c0.5,0.8,0.7,1.7,0.7,2.8
				c0,0.9-0.3,1.7-0.8,2.6c-0.5,0.8-1.2,1.5-2.1,2l2.9,4c0.1,0.2,0.2,0.4,0.2,0.6c0,0.6-0.2,1.1-0.5,1.6c-0.3,0.5-0.7,0.8-1,0.8
				c-0.4,0-0.7-0.2-1.1-0.7L126.8,33.5z M127.3,30.4c0.7,0,1.2-0.2,1.7-0.7c0.5-0.4,0.7-1,0.7-1.6c0-0.7-0.2-1.2-0.7-1.7
				c-0.5-0.4-1-0.7-1.7-0.7h-2.6v4.6H127.3z"/>
			<path class="st1" d="M150.4,39.6c-0.5,0-1-0.3-1.4-0.9c-0.2-0.2-0.3-0.5-0.4-0.8l-3.1-9.6l-3.1,9.6c-0.2,0.5-0.4,0.9-0.7,1.3
				c-0.3,0.3-0.6,0.5-1,0.5h-0.5c-0.5,0-1-0.3-1.4-0.9c-0.2-0.3-0.3-0.6-0.4-0.8l-4.1-13.2c-0.1-0.3-0.1-0.5-0.1-0.6
				c0-0.4,0.3-0.7,0.8-1.1c0.5-0.3,1.1-0.5,1.6-0.5c0.3,0,0.5,0.1,0.6,0.2c0.1,0.1,0.3,0.3,0.3,0.6l3.1,11l3-10.2
				c0.1-0.4,0.4-0.7,0.9-1c0.5-0.3,1-0.4,1.5-0.4h0.4c0.5,0,0.8,0.2,0.9,0.6l3.4,11l2.8-10.4c0.1-0.4,0.4-0.7,0.9-0.9
				c0.5-0.3,1-0.4,1.5-0.4c0.6,0,0.9,0.3,0.9,0.9c0,0.3-0.1,0.7-0.2,1.1L152.5,38c-0.1,0.5-0.4,0.9-0.7,1.2c-0.3,0.3-0.6,0.4-1,0.4
				H150.4z"/>
			<path class="st1" d="M166.3,39.8c-1.6,0-3.1-0.4-4.4-1.2c-1.3-0.8-2.4-1.9-3.1-3.2c-0.7-1.3-1.1-2.8-1.1-4.3
				c0-1.6,0.4-3.1,1.2-4.5s1.9-2.4,3.2-3.2c1.3-0.8,2.7-1.1,4.2-1.1c1.6,0,3.1,0.4,4.4,1.2c1.3,0.8,2.4,1.9,3.1,3.2
				c0.7,1.3,1.1,2.8,1.1,4.3c0,1.6-0.4,3.1-1.2,4.5s-1.9,2.4-3.2,3.2C169.2,39.5,167.8,39.8,166.3,39.8z M166.3,36.4
				c1,0,1.8-0.3,2.6-0.8c0.8-0.5,1.4-1.2,1.8-2c0.4-0.8,0.7-1.7,0.7-2.6c0-1-0.2-1.9-0.7-2.7c-0.5-0.8-1.1-1.5-1.9-1.9
				c-0.8-0.5-1.6-0.7-2.5-0.7c-1,0-1.8,0.3-2.6,0.8s-1.4,1.2-1.8,2c-0.4,0.8-0.7,1.7-0.7,2.6c0,1,0.2,1.9,0.7,2.7
				c0.5,0.8,1.1,1.5,1.9,1.9C164.6,36.2,165.4,36.4,166.3,36.4z"/>
			<path class="st1" d="M182.8,33.5h-2.1V37c0,0.7-0.2,1.3-0.5,1.8s-0.7,0.8-1.2,0.8c-0.4,0-0.8-0.3-1.2-0.9c-0.3-0.4-0.4-0.8-0.4-1
				V24.2c0-0.4,0.3-0.7,0.8-1.1c0.5-0.3,1.1-0.5,1.6-0.5h3.6c1.1,0,2.1,0.2,2.9,0.7s1.5,1.1,2,1.9c0.5,0.8,0.7,1.7,0.7,2.8
				c0,0.9-0.3,1.7-0.8,2.6c-0.5,0.8-1.2,1.5-2.1,2l2.9,4c0.1,0.2,0.2,0.4,0.2,0.6c0,0.6-0.2,1.1-0.5,1.6c-0.3,0.5-0.7,0.8-1,0.8
				c-0.4,0-0.7-0.2-1.1-0.7L182.8,33.5z M183.3,30.4c0.7,0,1.2-0.2,1.7-0.7c0.5-0.4,0.7-1,0.7-1.6c0-0.7-0.2-1.2-0.7-1.7
				c-0.5-0.4-1-0.7-1.7-0.7h-2.6v4.6H183.3z"/>
			<path class="st1" d="M193.2,39.5c-0.4,0-0.8-0.3-1.2-0.9c-0.3-0.4-0.4-0.8-0.4-1V24.1c0-0.4,0.3-0.7,0.8-1.1
				c0.5-0.3,1.1-0.5,1.6-0.5c0.6,0,0.9,0.3,0.9,0.9v12.7h6.2c0.6,0,0.9,0.3,0.9,0.8c0,0.4-0.1,0.8-0.3,1.2c-0.2,0.4-0.4,0.7-0.6,0.9
				c-0.2,0.2-0.5,0.3-0.7,0.3H193.2z"/>
			<path class="st1" d="M205.6,39.5c-0.4,0-0.8-0.3-1.2-0.9c-0.3-0.4-0.4-0.8-0.4-1V24.2c0-0.4,0.3-0.7,0.8-1.1
				c0.5-0.3,1.1-0.5,1.6-0.5h3.7c1.6,0,3,0.4,4.2,1.1s2.2,1.7,2.9,3c0.7,1.2,1,2.6,1,4.1c0,1.8-0.4,3.3-1.1,4.6
				c-0.7,1.3-1.7,2.3-3,3c-1.3,0.7-2.7,1-4.4,1H205.6z M209.9,36.2c1.5,0,2.7-0.5,3.5-1.4c0.8-0.9,1.3-2.2,1.3-3.9
				c0-1.5-0.4-2.7-1.3-3.6c-0.8-0.9-1.9-1.4-3.3-1.4h-2.9v10.3H209.9z"/>
			<path class="st1" d="M237.2,34.8c0,1-0.3,1.9-0.8,2.6c-0.5,0.8-1.3,1.4-2.2,1.8c-0.9,0.4-1.9,0.6-3,0.6c-0.8,0-1.6-0.1-2.4-0.4
				c-0.8-0.3-1.5-0.6-2.1-1.1s-1.1-1-1.4-1.5c-0.2-0.3-0.3-0.6-0.3-0.8c0-0.4,0.2-0.7,0.7-1c0.5-0.3,1-0.4,1.5-0.4
				c0.3,0,0.5,0.1,0.7,0.3c0.5,0.6,1.1,1,1.6,1.3c0.5,0.3,1.1,0.4,1.8,0.4c0.8,0,1.4-0.2,1.9-0.5c0.5-0.3,0.7-0.8,0.7-1.3
				c0-0.6-0.2-1-0.7-1.4c-0.5-0.4-1.4-0.8-2.6-1.3c-1.8-0.7-3-1.4-3.8-2.1s-1.1-1.7-1.1-2.9c0-0.9,0.3-1.7,0.8-2.4
				c0.5-0.7,1.3-1.3,2.1-1.7c0.9-0.4,1.8-0.6,2.9-0.6c0.8,0,1.6,0.1,2.4,0.4c0.8,0.2,1.5,0.6,2.1,1c0.2,0.2,0.4,0.4,0.4,0.7
				c0,0.6-0.2,1.1-0.5,1.6c-0.3,0.5-0.6,0.7-1,0.7c-0.2,0-0.4-0.1-0.6-0.2c-1.1-0.6-2-0.9-2.9-0.9c-0.7,0-1.3,0.1-1.7,0.4
				c-0.4,0.3-0.7,0.6-0.7,1.1c0,0.3,0.1,0.6,0.3,0.8c0.2,0.2,0.5,0.4,1,0.7s1.3,0.6,2.5,1c1.5,0.6,2.7,1.3,3.4,2.1
				S237.2,33.5,237.2,34.8z"/>
			<path class="st1" d="M247,39.8c-1.6,0-3.1-0.4-4.4-1.2c-1.3-0.8-2.4-1.9-3.1-3.2c-0.7-1.3-1.1-2.8-1.1-4.3c0-1.6,0.4-3.1,1.2-4.5
				s1.9-2.4,3.2-3.2c1.3-0.8,2.7-1.1,4.2-1.1c1.6,0,3.1,0.4,4.4,1.2c1.3,0.8,2.4,1.9,3.1,3.2c0.7,1.3,1.1,2.8,1.1,4.3
				c0,1.6-0.4,3.1-1.2,4.5s-1.9,2.4-3.2,3.2C249.9,39.5,248.5,39.8,247,39.8z M247,36.4c1,0,1.8-0.3,2.6-0.8c0.8-0.5,1.4-1.2,1.8-2
				c0.4-0.8,0.7-1.7,0.7-2.6c0-1-0.2-1.9-0.7-2.7c-0.5-0.8-1.1-1.5-1.9-1.9c-0.8-0.5-1.6-0.7-2.5-0.7c-1,0-1.8,0.3-2.6,0.8
				s-1.4,1.2-1.8,2c-0.4,0.8-0.7,1.7-0.7,2.6c0,1,0.2,1.9,0.7,2.7c0.5,0.8,1.1,1.5,1.9,1.9C245.3,36.2,246.1,36.4,247,36.4z"/>
			<path class="st1" d="M259.7,39.5c-0.4,0-0.8-0.3-1.2-0.9c-0.3-0.4-0.4-0.8-0.4-1V24.1c0-0.4,0.3-0.7,0.8-1.1
				c0.5-0.3,1.1-0.5,1.6-0.5c0.6,0,0.9,0.3,0.9,0.9v12.7h6.2c0.6,0,0.9,0.3,0.9,0.8c0,0.4-0.1,0.8-0.3,1.2c-0.2,0.4-0.4,0.7-0.6,0.9
				c-0.2,0.2-0.5,0.3-0.7,0.3H259.7z"/>
			<path class="st1" d="M279.5,24.1c0-0.4,0.3-0.7,0.8-1.1c0.5-0.3,1.1-0.5,1.6-0.5c0.6,0,0.9,0.3,0.9,0.9v9.8
				c0,1.3-0.3,2.5-0.9,3.5c-0.6,1-1.4,1.8-2.4,2.3c-1,0.5-2.1,0.8-3.3,0.8c-1.2,0-2.4-0.3-3.4-0.9c-1-0.6-1.8-1.4-2.4-2.4
				c-0.6-1-0.8-2.1-0.8-3.3v-9.1c0-0.4,0.3-0.7,0.8-1.1c0.5-0.3,1.1-0.5,1.6-0.5c0.6,0,0.9,0.3,0.9,0.9v9.5c0,1,0.3,1.8,0.9,2.5
				c0.6,0.7,1.4,1,2.3,1c0.9,0,1.7-0.3,2.3-1c0.6-0.7,0.9-1.5,0.9-2.5V24.1z"/>
			<path class="st1" d="M289.3,26.2H286c-0.4,0-0.8-0.3-1.2-0.9c-0.3-0.4-0.4-0.8-0.4-1c0-0.4,0.3-0.7,0.8-1.1
				c0.5-0.3,1.1-0.5,1.6-0.5h9.8c0.6,0,0.9,0.3,0.9,0.9c0,0.7-0.2,1.3-0.5,1.8c-0.4,0.5-0.7,0.8-1.2,0.8h-3.2V37
				c0,0.7-0.2,1.3-0.5,1.8c-0.4,0.5-0.7,0.8-1.2,0.8c-0.4,0-0.8-0.3-1.2-0.9c-0.3-0.4-0.4-0.8-0.4-1V26.2z"/>
			<path class="st1" d="M299.4,24.1c0-0.4,0.3-0.7,0.8-1.1c0.5-0.3,1.1-0.5,1.6-0.5c0.6,0,0.9,0.3,0.9,0.9V37c0,0.7-0.2,1.3-0.5,1.8
				s-0.7,0.8-1.2,0.8c-0.4,0-0.8-0.3-1.2-0.9c-0.3-0.4-0.4-0.8-0.4-1V24.1z"/>
			<path class="st1" d="M313.8,39.8c-1.6,0-3.1-0.4-4.4-1.2c-1.3-0.8-2.4-1.9-3.1-3.2c-0.7-1.3-1.1-2.8-1.1-4.3
				c0-1.6,0.4-3.1,1.2-4.5s1.9-2.4,3.2-3.2c1.3-0.8,2.7-1.1,4.2-1.1c1.6,0,3.1,0.4,4.4,1.2c1.3,0.8,2.4,1.9,3.1,3.2
				c0.7,1.3,1.1,2.8,1.1,4.3c0,1.6-0.4,3.1-1.2,4.5s-1.9,2.4-3.2,3.2C316.7,39.5,315.3,39.8,313.8,39.8z M313.8,36.4
				c1,0,1.8-0.3,2.6-0.8c0.8-0.5,1.4-1.2,1.8-2c0.4-0.8,0.7-1.7,0.7-2.6c0-1-0.2-1.9-0.7-2.7c-0.5-0.8-1.1-1.5-1.9-1.9
				c-0.8-0.5-1.6-0.7-2.5-0.7c-1,0-1.8,0.3-2.6,0.8s-1.4,1.2-1.8,2c-0.4,0.8-0.7,1.7-0.7,2.6c0,1,0.2,1.9,0.7,2.7
				c0.5,0.8,1.1,1.5,1.9,1.9C312.1,36.2,312.9,36.4,313.8,36.4z"/>
			<path class="st1" d="M336.2,39.6c-0.2,0-0.5-0.1-0.8-0.3c-0.3-0.2-0.5-0.5-0.7-0.8L328,27.5v9.6c0,0.6-0.2,1.2-0.5,1.7
				c-0.3,0.5-0.7,0.8-1.1,0.8c-0.2,0-0.4-0.1-0.6-0.2c-0.2-0.2-0.4-0.4-0.6-0.6c-0.3-0.4-0.4-0.7-0.4-1V24c0-0.2,0.1-0.5,0.4-0.7
				c0.2-0.2,0.5-0.4,0.9-0.6c0.3-0.1,0.7-0.2,1-0.2h1.1c0.4,0,0.7,0.2,0.9,0.5l6.8,11.2V24c0-0.2,0.1-0.5,0.4-0.7
				c0.2-0.2,0.5-0.4,0.9-0.6c0.3-0.1,0.7-0.2,1-0.2c0.6,0,0.9,0.3,0.9,0.8v13.8c0,0.6-0.2,1.2-0.5,1.7c-0.3,0.5-0.7,0.8-1.1,0.8
				H336.2z"/>
			<path class="st1" d="M353.4,34.8c0,1-0.3,1.9-0.8,2.6c-0.5,0.8-1.3,1.4-2.2,1.8c-0.9,0.4-1.9,0.6-3,0.6c-0.8,0-1.6-0.1-2.4-0.4
				c-0.8-0.3-1.5-0.6-2.1-1.1s-1.1-1-1.4-1.5c-0.2-0.3-0.3-0.6-0.3-0.8c0-0.4,0.2-0.7,0.7-1c0.5-0.3,1-0.4,1.5-0.4
				c0.3,0,0.5,0.1,0.7,0.3c0.5,0.6,1.1,1,1.6,1.3c0.5,0.3,1.1,0.4,1.8,0.4c0.8,0,1.4-0.2,1.9-0.5c0.5-0.3,0.7-0.8,0.7-1.3
				c0-0.6-0.2-1-0.7-1.4c-0.5-0.4-1.4-0.8-2.6-1.3c-1.8-0.7-3-1.4-3.8-2.1s-1.1-1.7-1.1-2.9c0-0.9,0.3-1.7,0.8-2.4
				c0.5-0.7,1.3-1.3,2.1-1.7c0.9-0.4,1.8-0.6,2.9-0.6c0.8,0,1.6,0.1,2.4,0.4c0.8,0.2,1.5,0.6,2.1,1c0.2,0.2,0.4,0.4,0.4,0.7
				c0,0.6-0.2,1.1-0.5,1.6c-0.3,0.5-0.6,0.7-1,0.7c-0.2,0-0.4-0.1-0.6-0.2c-1.1-0.6-2-0.9-2.9-0.9c-0.7,0-1.3,0.1-1.7,0.4
				c-0.4,0.3-0.7,0.6-0.7,1.1c0,0.3,0.1,0.6,0.3,0.8c0.2,0.2,0.5,0.4,1,0.7s1.3,0.6,2.5,1c1.5,0.6,2.7,1.3,3.4,2.1
				S353.4,33.5,353.4,34.8z"/>
		</g>
	</g>
	<g>
		<text transform="matrix(1 0 0 1 83.5013 -31.8496)" class="st1" style="font-family:'Pebble-Regular'; font-size:24px;">Fairworld Solutions</text>
	</g>
</g>
</svg>
